<?xml version="1.0" encoding="us-ascii" standalone="no"?><svg xmlns="http://www.w3.org/2000/svg" xmlns:xlink="http://www.w3.org/1999/xlink" contentStyleType="text/css" height="463px" preserveAspectRatio="none" style="width:347px;height:463px;background:#FFFFFF;" version="1.1" viewBox="0 0 347 463" width="347px" zoomAndPan="magnify"><defs/><g><ellipse cx="194" cy="20" fill="#222222" rx="10" ry="10" style="stroke:#222222;stroke-width:1.0;"/><rect fill="#F1F1F1" height="47.9375" rx="12.5" ry="12.5" style="stroke:#181818;stroke-width:0.5;" width="123" x="132.5" y="110.8047"/><text fill="#000000" font-family="sans-serif" font-size="12" lengthAdjust="spacing" textLength="103" x="142.5" y="131.9434">Request toggling</text><text fill="#000000" font-family="sans-serif" font-size="12" lengthAdjust="spacing" textLength="73" x="142.5" y="145.9121">off of switch</text><polygon fill="#F1F1F1" points="160.5,178.7422,227.5,178.7422,239.5,191.5469,227.5,204.3516,160.5,204.3516,148.5,191.5469,160.5,178.7422" style="stroke:#181818;stroke-width:0.5;"/><text fill="#000000" font-family="sans-serif" font-size="11" lengthAdjust="spacing" textLength="41" x="160.5" y="188.9526">current</text><text fill="#000000" font-family="sans-serif" font-size="11" lengthAdjust="spacing" textLength="67" x="160.5" y="201.7573">switch state</text><text fill="#000000" font-family="sans-serif" font-size="11" lengthAdjust="spacing" textLength="14" x="134.5" y="188.9526">on</text><text fill="#000000" font-family="sans-serif" font-size="11" lengthAdjust="spacing" textLength="15" x="239.5" y="188.9526">off</text><rect fill="#98FB98" height="33.9688" rx="12.5" ry="12.5" style="stroke:#181818;stroke-width:0.5;" width="69" x="71.5" y="214.3516"/><text fill="#000000" font-family="sans-serif" font-size="12" lengthAdjust="spacing" textLength="49" x="81.5" y="235.4902">approve</text><rect fill="#F1F1F1" height="47.9375" rx="12.5" ry="12.5" style="stroke:#181818;stroke-width:0.5;" width="108" x="52" y="277.8203"/><text fill="#000000" font-family="sans-serif" font-size="12" lengthAdjust="spacing" textLength="88" x="62" y="298.959">Order toggling</text><text fill="#000000" font-family="sans-serif" font-size="12" lengthAdjust="spacing" textLength="73" x="62" y="312.9277">off of switch</text><rect fill="#F1F1F1" height="33.9688" rx="12.5" ry="12.5" style="stroke:#181818;stroke-width:0.5;" width="122" x="45" y="395.7695"/><text fill="#000000" font-family="sans-serif" font-size="12" lengthAdjust="spacing" textLength="102" x="55" y="416.9082">Toggle switch off</text><polygon fill="#F1F1F1" points="72.5,345.7578,139.5,345.7578,151.5,358.5625,139.5,371.3672,72.5,371.3672,60.5,358.5625,72.5,345.7578" style="stroke:#181818;stroke-width:0.5;"/><text fill="#000000" font-family="sans-serif" font-size="11" lengthAdjust="spacing" textLength="14" x="110" y="381.5776">on</text><text fill="#000000" font-family="sans-serif" font-size="11" lengthAdjust="spacing" textLength="41" x="72.5" y="355.9683">current</text><text fill="#000000" font-family="sans-serif" font-size="11" lengthAdjust="spacing" textLength="67" x="72.5" y="368.7729">switch state</text><text fill="#000000" font-family="sans-serif" font-size="11" lengthAdjust="spacing" textLength="15" x="151.5" y="355.9683">off</text><ellipse cx="188.5" cy="358.5625" fill="none" rx="11" ry="11" style="stroke:#222222;stroke-width:1.0;"/><ellipse cx="188.5" cy="358.5625" fill="#222222" rx="6" ry="6" style="stroke:#222222;stroke-width:1.0;"/><rect fill="#FFC0CB" height="33.9688" rx="12.5" ry="12.5" style="stroke:#181818;stroke-width:0.5;" width="50" x="257" y="214.3516"/><text fill="#000000" font-family="sans-serif" font-size="12" lengthAdjust="spacing" textLength="30" x="267" y="235.4902">deny</text><ellipse cx="282" cy="288.8203" fill="none" rx="11" ry="11" style="stroke:#222222;stroke-width:1.0;"/><ellipse cx="282" cy="288.8203" fill="#222222" rx="6" ry="6" style="stroke:#222222;stroke-width:1.0;"/><polygon fill="#F1F1F1" points="153.5,50,234.5,50,246.5,62,234.5,74,153.5,74,141.5,62,153.5,50" style="stroke:#181818;stroke-width:0.5;"/><text fill="#000000" font-family="sans-serif" font-size="11" lengthAdjust="spacing" textLength="14" x="198" y="84.2104">on</text><text fill="#000000" font-family="sans-serif" font-size="11" lengthAdjust="spacing" textLength="81" x="153.5" y="65.8081">switch toggled</text><text fill="#000000" font-family="sans-serif" font-size="11" lengthAdjust="spacing" textLength="15" x="126.5" y="59.4058">off</text><ellipse cx="24" cy="109" fill="none" rx="11" ry="11" style="stroke:#222222;stroke-width:1.0;"/><ellipse cx="24" cy="109" fill="#222222" rx="6" ry="6" style="stroke:#222222;stroke-width:1.0;"/><line style="stroke:#181818;stroke-width:1.0;" x1="106" x2="106" y1="248.3203" y2="277.8203"/><polygon fill="#181818" points="102,267.8203,106,277.8203,110,267.8203,106,271.8203" style="stroke:#181818;stroke-width:1.0;"/><line style="stroke:#181818;stroke-width:1.0;" x1="106" x2="106" y1="371.3672" y2="395.7695"/><polygon fill="#181818" points="102,385.7695,106,395.7695,110,385.7695,106,389.7695" style="stroke:#181818;stroke-width:1.0;"/><line style="stroke:#181818;stroke-width:1.0;" x1="151.5" x2="177.5" y1="358.5625" y2="358.5625"/><polygon fill="#181818" points="167.5,354.5625,177.5,358.5625,167.5,362.5625,171.5,358.5625" style="stroke:#181818;stroke-width:1.0;"/><line style="stroke:#181818;stroke-width:1.0;" x1="106" x2="106" y1="429.7383" y2="434.7383"/><line style="stroke:#181818;stroke-width:1.0;" x1="106" x2="321" y1="434.7383" y2="434.7383"/><polygon fill="#181818" points="317,268.3203,321,258.3203,325,268.3203,321,264.3203" style="stroke:#181818;stroke-width:1.0;"/><line style="stroke:#181818;stroke-width:1.0;" x1="321" x2="321" y1="62" y2="434.7383"/><line style="stroke:#181818;stroke-width:1.0;" x1="321" x2="246.5" y1="62" y2="62"/><polygon fill="#181818" points="256.5,58,246.5,62,256.5,66,252.5,62" style="stroke:#181818;stroke-width:1.0;"/><line style="stroke:#181818;stroke-width:1.0;" x1="106" x2="106" y1="325.7578" y2="345.7578"/><polygon fill="#181818" points="102,335.7578,106,345.7578,110,335.7578,106,339.7578" style="stroke:#181818;stroke-width:1.0;"/><line style="stroke:#181818;stroke-width:1.0;" x1="282" x2="282" y1="248.3203" y2="277.8203"/><polygon fill="#181818" points="278,267.8203,282,277.8203,286,267.8203,282,271.8203" style="stroke:#181818;stroke-width:1.0;"/><line style="stroke:#181818;stroke-width:1.0;" x1="148.5" x2="106" y1="191.5469" y2="191.5469"/><line style="stroke:#181818;stroke-width:1.0;" x1="106" x2="106" y1="191.5469" y2="214.3516"/><polygon fill="#181818" points="102,204.3516,106,214.3516,110,204.3516,106,208.3516" style="stroke:#181818;stroke-width:1.0;"/><line style="stroke:#181818;stroke-width:1.0;" x1="239.5" x2="282" y1="191.5469" y2="191.5469"/><line style="stroke:#181818;stroke-width:1.0;" x1="282" x2="282" y1="191.5469" y2="214.3516"/><polygon fill="#181818" points="278,204.3516,282,214.3516,286,204.3516,282,208.3516" style="stroke:#181818;stroke-width:1.0;"/><line style="stroke:#181818;stroke-width:1.0;" x1="194" x2="194" y1="158.7422" y2="178.7422"/><polygon fill="#181818" points="190,168.7422,194,178.7422,198,168.7422,194,172.7422" style="stroke:#181818;stroke-width:1.0;"/><line style="stroke:#181818;stroke-width:1.0;" x1="194" x2="194" y1="74" y2="110.8047"/><polygon fill="#181818" points="190,100.8047,194,110.8047,198,100.8047,194,104.8047" style="stroke:#181818;stroke-width:1.0;"/><line style="stroke:#181818;stroke-width:1.0;" x1="141.5" x2="24" y1="62" y2="62"/><line style="stroke:#181818;stroke-width:1.0;" x1="24" x2="24" y1="62" y2="98"/><polygon fill="#181818" points="20,88,24,98,28,88,24,92" style="stroke:#181818;stroke-width:1.0;"/><line style="stroke:#181818;stroke-width:1.0;" x1="194" x2="194" y1="30" y2="50"/><polygon fill="#181818" points="190,40,194,50,198,40,194,44" style="stroke:#181818;stroke-width:1.0;"/><!--SRC=[bP0n3iCW34NtdC9IbkGAv12LgevTK3045HaAJgFUleH4GHaor18Ct_xloqui8pVBP1r2bnRBumJiZN6eUh09Eazz0xd47Typ9jwwbanHlTRvmMOSYcGrTECS8n8_QIScbemzy8HKYMkrGJeq4P64327w3mv7JzoYmdZEkyZyExVm7sNF7RHYAmnTolV8qjcIs8SwGyhgvcAw3PPUGY5zA_HmRyxyxtSlphNx0m00]--></g></svg>